<svg width="97" height="97" viewBox="0 0 97 97" fill="none" xmlns="http://www.w3.org/2000/svg">
<mask id="path-1-outside-1_949_387" maskUnits="userSpaceOnUse" x="0" y="0" width="97" height="97" fill="black">
<rect fill="white" width="97" height="97"/>
<path d="M48.416 92.832C42.272 92.832 36.512 91.68 31.136 89.376C25.8453 87.072 21.152 83.9147 17.056 79.904C12.96 75.808 9.76 71.072 7.456 65.696C5.152 60.32 4 54.56 4 48.416C4 42.272 5.152 36.5547 7.456 31.264C9.76 25.888 12.9173 21.152 16.928 17.056C21.024 12.96 25.76 9.76 31.136 7.456C36.512 5.152 42.272 4 48.416 4C54.56 4 60.32 5.152 65.696 7.456C71.072 9.76 75.7653 12.96 79.776 17.056C83.872 21.0667 87.072 25.76 89.376 31.136C91.68 36.512 92.832 42.272 92.832 48.416C92.832 54.56 91.68 60.32 89.376 65.696C87.072 71.072 83.872 75.808 79.776 79.904C75.7653 83.9147 71.072 87.072 65.696 89.376C60.32 91.68 54.56 92.832 48.416 92.832ZM48.288 72.608C57.248 72.608 64.1173 68.0427 68.896 58.912L64.416 56.48C62.5387 59.808 60.2347 62.3253 57.504 64.032C54.8587 65.6533 51.7867 66.464 48.288 66.464C44.704 66.464 41.5467 65.6533 38.816 64.032C36.1707 62.3253 33.952 59.808 32.16 56.48L27.808 58.912C32.5867 68.0427 39.4133 72.608 48.288 72.608ZM31.52 44.96C33.2267 44.96 34.592 44.4053 35.616 43.296C36.7253 42.1867 37.28 40.8213 37.28 39.2C37.28 37.5787 36.7253 36.2133 35.616 35.104C34.592 33.9947 33.2267 33.44 31.52 33.44C29.8987 33.44 28.5333 33.9947 27.424 35.104C26.3147 36.2133 25.76 37.5787 25.76 39.2C25.76 40.8213 26.3147 42.1867 27.424 43.296C28.5333 44.4053 29.8987 44.96 31.52 44.96ZM65.312 44.96C66.9333 44.96 68.2987 44.448 69.408 43.424C70.5173 42.3147 71.072 40.9067 71.072 39.2C71.072 37.5787 70.5173 36.2133 69.408 35.104C68.2987 33.9947 66.9333 33.44 65.312 33.44C63.6907 33.44 62.3253 33.9947 61.216 35.104C60.1067 36.2133 59.552 37.5787 59.552 39.2C59.552 40.8213 60.1067 42.1867 61.216 43.296C62.3253 44.4053 63.6907 44.96 65.312 44.96Z"/>
<path d="M31.52 44.96C33.2267 44.96 34.592 44.4053 35.616 43.296C36.7253 42.1867 37.28 40.8213 37.28 39.2C37.28 37.5787 36.7253 36.2133 35.616 35.104C34.592 33.9947 33.2267 33.44 31.52 33.44C29.8987 33.44 28.5333 33.9947 27.424 35.104C26.3147 36.2133 25.76 37.5787 25.76 39.2C25.76 40.8213 26.3147 42.1867 27.424 43.296C28.5333 44.4053 29.8987 44.96 31.52 44.96Z"/>
<path d="M65.312 44.96C66.9333 44.96 68.2987 44.448 69.408 43.424C70.5173 42.3147 71.072 40.9067 71.072 39.2C71.072 37.5787 70.5173 36.2133 69.408 35.104C68.2987 33.9947 66.9333 33.44 65.312 33.44C63.6907 33.44 62.3253 33.9947 61.216 35.104C60.1067 36.2133 59.552 37.5787 59.552 39.2C59.552 40.8213 60.1067 42.1867 61.216 43.296C62.3253 44.4053 63.6907 44.96 65.312 44.96Z"/>
<path d="M48.288 72.608C57.248 72.608 64.1173 68.0427 68.896 58.912L64.416 56.48C62.5387 59.808 60.2347 62.3253 57.504 64.032C54.8587 65.6533 51.7867 66.464 48.288 66.464C44.704 66.464 41.5467 65.6533 38.816 64.032C36.1707 62.3253 33.952 59.808 32.16 56.48L27.808 58.912C32.5867 68.0427 39.4133 72.608 48.288 72.608Z"/>
</mask>
<path d="M48.416 92.832C42.272 92.832 36.512 91.68 31.136 89.376C25.8453 87.072 21.152 83.9147 17.056 79.904C12.96 75.808 9.76 71.072 7.456 65.696C5.152 60.32 4 54.56 4 48.416C4 42.272 5.152 36.5547 7.456 31.264C9.76 25.888 12.9173 21.152 16.928 17.056C21.024 12.96 25.76 9.76 31.136 7.456C36.512 5.152 42.272 4 48.416 4C54.56 4 60.32 5.152 65.696 7.456C71.072 9.76 75.7653 12.96 79.776 17.056C83.872 21.0667 87.072 25.76 89.376 31.136C91.68 36.512 92.832 42.272 92.832 48.416C92.832 54.56 91.68 60.32 89.376 65.696C87.072 71.072 83.872 75.808 79.776 79.904C75.7653 83.9147 71.072 87.072 65.696 89.376C60.32 91.68 54.56 92.832 48.416 92.832ZM48.288 72.608C57.248 72.608 64.1173 68.0427 68.896 58.912L64.416 56.48C62.5387 59.808 60.2347 62.3253 57.504 64.032C54.8587 65.6533 51.7867 66.464 48.288 66.464C44.704 66.464 41.5467 65.6533 38.816 64.032C36.1707 62.3253 33.952 59.808 32.16 56.48L27.808 58.912C32.5867 68.0427 39.4133 72.608 48.288 72.608ZM31.52 44.96C33.2267 44.96 34.592 44.4053 35.616 43.296C36.7253 42.1867 37.28 40.8213 37.28 39.2C37.28 37.5787 36.7253 36.2133 35.616 35.104C34.592 33.9947 33.2267 33.44 31.52 33.44C29.8987 33.44 28.5333 33.9947 27.424 35.104C26.3147 36.2133 25.76 37.5787 25.76 39.2C25.76 40.8213 26.3147 42.1867 27.424 43.296C28.5333 44.4053 29.8987 44.96 31.52 44.96ZM65.312 44.96C66.9333 44.96 68.2987 44.448 69.408 43.424C70.5173 42.3147 71.072 40.9067 71.072 39.2C71.072 37.5787 70.5173 36.2133 69.408 35.104C68.2987 33.9947 66.9333 33.44 65.312 33.44C63.6907 33.44 62.3253 33.9947 61.216 35.104C60.1067 36.2133 59.552 37.5787 59.552 39.2C59.552 40.8213 60.1067 42.1867 61.216 43.296C62.3253 44.4053 63.6907 44.96 65.312 44.96Z" fill="black"/>
<path d="M31.52 44.96C33.2267 44.96 34.592 44.4053 35.616 43.296C36.7253 42.1867 37.28 40.8213 37.28 39.2C37.28 37.5787 36.7253 36.2133 35.616 35.104C34.592 33.9947 33.2267 33.44 31.52 33.44C29.8987 33.44 28.5333 33.9947 27.424 35.104C26.3147 36.2133 25.76 37.5787 25.76 39.2C25.76 40.8213 26.3147 42.1867 27.424 43.296C28.5333 44.4053 29.8987 44.96 31.52 44.96Z" fill="#FCFCFC"/>
<path d="M65.312 44.96C66.9333 44.96 68.2987 44.448 69.408 43.424C70.5173 42.3147 71.072 40.9067 71.072 39.2C71.072 37.5787 70.5173 36.2133 69.408 35.104C68.2987 33.9947 66.9333 33.44 65.312 33.44C63.6907 33.44 62.3253 33.9947 61.216 35.104C60.1067 36.2133 59.552 37.5787 59.552 39.2C59.552 40.8213 60.1067 42.1867 61.216 43.296C62.3253 44.4053 63.6907 44.96 65.312 44.96Z" fill="#FCFCFC"/>
<path d="M48.288 72.608C57.248 72.608 64.1173 68.0427 68.896 58.912L64.416 56.48C62.5387 59.808 60.2347 62.3253 57.504 64.032C54.8587 65.6533 51.7867 66.464 48.288 66.464C44.704 66.464 41.5467 65.6533 38.816 64.032C36.1707 62.3253 33.952 59.808 32.16 56.48L27.808 58.912C32.5867 68.0427 39.4133 72.608 48.288 72.608Z" fill="#FCFCFC"/>
<path d="M68.896 58.912L70.668 59.8394L71.5814 58.0941L69.8502 57.1543L68.896 58.912ZM64.416 56.48L65.3702 54.7223L63.6408 53.7835L62.674 55.4974L64.416 56.48ZM57.504 64.032L58.5491 65.7372L58.5566 65.7326L58.564 65.728L57.504 64.032ZM38.816 64.032L37.7317 65.7126L37.763 65.7327L37.7949 65.7517L38.816 64.032ZM32.16 56.48L33.9209 55.5318L32.9578 53.7431L31.1844 54.7341L32.16 56.48ZM27.808 58.912L26.8324 57.1661L25.1337 58.1154L26.036 59.8394L27.808 58.912ZM35.616 43.296L34.2018 41.8818L34.1735 41.9101L34.1464 41.9394L35.616 43.296ZM35.616 35.104L34.1464 36.4606L34.1735 36.4899L34.2018 36.5182L35.616 35.104ZM27.424 35.104L28.8382 36.5182L28.8382 36.5182L27.424 35.104ZM27.424 43.296L26.0098 44.7102L26.0098 44.7102L27.424 43.296ZM69.408 43.424L70.7646 44.8936L70.7939 44.8665L70.8222 44.8382L69.408 43.424ZM69.408 35.104L67.9938 36.5182L67.9938 36.5182L69.408 35.104ZM61.216 35.104L62.6302 36.5182L62.6302 36.5182L61.216 35.104ZM61.216 43.296L59.8018 44.7102L59.8018 44.7102L61.216 43.296ZM48.288 74.608C53.1264 74.608 57.4759 73.3692 61.267 70.8497C65.0435 68.3399 68.1609 64.6297 70.668 59.8394L67.124 57.9846C64.8524 62.325 62.1459 65.4628 59.053 67.5183C55.9747 69.5641 52.4097 70.608 48.288 70.608V74.608ZM69.8502 57.1543L65.3702 54.7223L63.4618 58.2377L67.9418 60.6697L69.8502 57.1543ZM62.674 55.4974C60.9303 58.5886 58.8428 60.8368 56.444 62.336L58.564 65.728C61.6265 63.8139 64.1471 61.0274 66.158 57.4626L62.674 55.4974ZM56.4589 62.3268C54.1668 63.7316 51.4661 64.464 48.288 64.464V68.464C52.1073 68.464 55.5505 67.5751 58.5491 65.7372L56.4589 62.3268ZM48.288 64.464C45.0161 64.464 42.2205 63.7275 39.8371 62.3123L37.7949 65.7517C40.8728 67.5792 44.3919 68.464 48.288 68.464V64.464ZM39.9003 62.3514C37.5905 60.8613 35.5849 58.6219 33.9209 55.5318L30.3991 57.4282C32.3191 60.9941 34.7508 63.7894 37.7317 65.7126L39.9003 62.3514ZM31.1844 54.7341L26.8324 57.1661L28.7836 60.6579L33.1356 58.2259L31.1844 54.7341ZM26.036 59.8394C28.5416 64.6269 31.6466 68.3363 35.4002 70.8465C39.1693 73.3671 43.4883 74.608 48.288 74.608V70.608C44.2131 70.608 40.6814 69.5663 37.6238 67.5215C34.5507 65.4664 31.853 62.3277 29.58 57.9846L26.036 59.8394ZM31.52 46.96C33.7045 46.96 35.6317 46.2276 37.0856 44.6526L34.1464 41.9394C33.5523 42.583 32.7489 42.96 31.52 42.96V46.96ZM37.0302 44.7102C38.5284 43.212 39.28 41.3319 39.28 39.2H35.28C35.28 40.3107 34.9223 41.1613 34.2018 41.8818L37.0302 44.7102ZM39.28 39.2C39.28 37.0681 38.5284 35.188 37.0302 33.6898L34.2018 36.5182C34.9223 37.2387 35.28 38.0893 35.28 39.2H39.28ZM37.0856 33.7474C35.6317 32.1724 33.7045 31.44 31.52 31.44V35.44C32.7489 35.44 33.5523 35.817 34.1464 36.4606L37.0856 33.7474ZM31.52 31.44C29.3881 31.44 27.508 32.1916 26.0098 33.6898L28.8382 36.5182C29.5587 35.7978 30.4093 35.44 31.52 35.44V31.44ZM26.0098 33.6898C24.5116 35.188 23.76 37.0681 23.76 39.2H27.76C27.76 38.0893 28.1178 37.2387 28.8382 36.5182L26.0098 33.6898ZM23.76 39.2C23.76 41.3319 24.5116 43.212 26.0098 44.7102L28.8382 41.8818C28.1178 41.1613 27.76 40.3107 27.76 39.2H23.76ZM26.0098 44.7102C27.508 46.2084 29.3881 46.96 31.52 46.96V42.96C30.4093 42.96 29.5587 42.6023 28.8382 41.8818L26.0098 44.7102ZM65.312 46.96C67.3955 46.96 69.257 46.2852 70.7646 44.8936L68.0514 41.9544C67.3404 42.6108 66.4712 42.96 65.312 42.96V46.96ZM70.8222 44.8382C72.3414 43.319 73.072 41.3857 73.072 39.2H69.072C69.072 40.4276 68.6932 41.3103 67.9938 42.0098L70.8222 44.8382ZM73.072 39.2C73.072 37.0681 72.3204 35.188 70.8222 33.6898L67.9938 36.5182C68.7143 37.2387 69.072 38.0893 69.072 39.2H73.072ZM70.8222 33.6898C69.324 32.1916 67.4439 31.44 65.312 31.44V35.44C66.4227 35.44 67.2733 35.7978 67.9938 36.5182L70.8222 33.6898ZM65.312 31.44C63.1801 31.44 61.3 32.1916 59.8018 33.6898L62.6302 36.5182C63.3507 35.7978 64.2013 35.44 65.312 35.44V31.44ZM59.8018 33.6898C58.3036 35.188 57.552 37.0681 57.552 39.2H61.552C61.552 38.0893 61.9098 37.2387 62.6302 36.5182L59.8018 33.6898ZM57.552 39.2C57.552 41.3319 58.3036 43.212 59.8018 44.7102L62.6302 41.8818C61.9098 41.1613 61.552 40.3107 61.552 39.2H57.552ZM59.8018 44.7102C61.3 46.2084 63.1801 46.96 65.312 46.96V42.96C64.2013 42.96 63.3507 42.6023 62.6302 41.8818L59.8018 44.7102ZM31.136 89.376L29.5389 93.0433L29.5496 93.048L29.5603 93.0526L31.136 89.376ZM17.056 79.904L14.2276 82.7324L14.2425 82.7473L14.2575 82.762L17.056 79.904ZM7.456 65.696L3.77942 67.2717L3.77942 67.2717L7.456 65.696ZM7.456 31.264L11.1233 32.8611L11.128 32.8504L11.1326 32.8397L7.456 31.264ZM16.928 17.056L14.0996 14.2276L14.0847 14.2425L14.07 14.2575L16.928 17.056ZM31.136 7.456L32.7117 11.1326L32.7117 11.1326L31.136 7.456ZM65.696 7.456L67.2717 3.77942L67.2717 3.77942L65.696 7.456ZM79.776 17.056L76.918 19.8545L76.9474 19.8846L76.9775 19.914L79.776 17.056ZM89.376 31.136L93.0526 29.5603L93.0526 29.5603L89.376 31.136ZM79.776 79.904L76.9476 77.0756L76.9476 77.0756L79.776 79.904ZM65.696 89.376L67.2717 93.0526L67.2717 93.0526L65.696 89.376ZM48.416 88.832C42.7859 88.832 37.5648 87.7793 32.7117 85.6994L29.5603 93.0526C35.4592 95.5807 41.7581 96.832 48.416 96.832V88.832ZM32.7331 85.7087C27.8858 83.5977 23.6003 80.7137 19.8545 77.046L14.2575 82.762C18.7037 87.1157 23.8049 90.5463 29.5389 93.0433L32.7331 85.7087ZM19.8844 77.0756C16.1518 73.343 13.2381 69.0333 11.1326 64.1203L3.77942 67.2717C6.28188 73.1108 9.76818 78.273 14.2276 82.7324L19.8844 77.0756ZM11.1326 64.1203C9.05267 59.2672 8 54.0461 8 48.416H0C0 55.0739 1.25133 61.3728 3.77942 67.2717L11.1326 64.1203ZM8 48.416C8 42.7854 9.05274 37.6158 11.1233 32.8611L3.78866 29.6669C1.25126 35.4936 0 41.7586 0 48.416H8ZM11.1326 32.8397C13.2457 27.909 16.1286 23.5898 19.786 19.8545L14.07 14.2575C9.70608 18.7142 6.27426 23.867 3.77942 29.6883L11.1326 32.8397ZM19.7564 19.8844C23.489 16.1518 27.7987 13.2381 32.7117 11.1326L29.5603 3.77942C23.7213 6.28188 18.559 9.76818 14.0996 14.2276L19.7564 19.8844ZM32.7117 11.1326C37.5648 9.05267 42.7859 8 48.416 8V0C41.7581 0 35.4592 1.25133 29.5603 3.77942L32.7117 11.1326ZM48.416 8C54.0461 8 59.2672 9.05267 64.1203 11.1326L67.2717 3.77942C61.3728 1.25133 55.0739 0 48.416 0V8ZM64.1203 11.1326C69.0256 13.2348 73.2808 16.1399 76.918 19.8545L82.634 14.2575C78.2499 9.78009 73.1184 6.28518 67.2717 3.77942L64.1203 11.1326ZM76.9775 19.914C80.6921 23.5513 83.5972 27.8064 85.6994 32.7117L93.0526 29.5603C90.5468 23.7136 87.0519 18.5821 82.5745 14.198L76.9775 19.914ZM85.6994 32.7117C87.7793 37.5648 88.832 42.7859 88.832 48.416H96.832C96.832 41.7581 95.5807 35.4592 93.0526 29.5603L85.6994 32.7117ZM88.832 48.416C88.832 54.0461 87.7793 59.2672 85.6994 64.1203L93.0526 67.2717C95.5807 61.3728 96.832 55.0739 96.832 48.416H88.832ZM85.6994 64.1203C83.5939 69.0333 80.6802 73.343 76.9476 77.0756L82.6044 82.7324C87.0638 78.273 90.5501 73.1108 93.0526 67.2717L85.6994 64.1203ZM76.9476 77.0756C73.308 80.7151 69.0435 83.5895 64.1203 85.6994L67.2717 93.0526C73.1005 90.5545 78.2227 87.1142 82.6044 82.7324L76.9476 77.0756ZM64.1203 85.6994C59.2672 87.7793 54.0461 88.832 48.416 88.832V96.832C55.0739 96.832 61.3728 95.5807 67.2717 93.0526L64.1203 85.6994Z" fill="#FCFCFC" mask="url(#path-1-outside-1_949_387)"/>
</svg>
