<svg width="142" height="147" viewBox="0 0 142 147" fill="none" xmlns="http://www.w3.org/2000/svg">
<path d="M133.612 79.4144C134.734 84.3656 135.256 90.6324 136.698 95.4417C137.345 98.9881 138.301 101.933 138.301 105.592C138.301 114.686 134.209 122.338 127.587 128.297C123.925 131.593 117.347 134.35 112.657 135.628C106.824 137.219 100.767 138.364 94.7901 139.249C90.8153 139.838 86.9398 140.837 83.0071 141.624C77.8496 142.655 72.061 141.921 66.8315 141.921C58.8517 141.921 50.9674 142.989 42.9687 142.989C35.3457 142.989 27.6609 143.2 20.115 141.921C13.4098 140.784 11.0521 131.426 7.94623 126.25C6.52901 123.888 5.80926 119.9 5.80926 117.078C5.80926 113.889 4.74078 110.751 4.74078 107.462C4.74078 101.166 3.70885 94.9864 3.16774 88.7636C2.46168 80.644 4.20654 72.6054 4.20654 64.5744C4.20654 51.2833 3.92832 35.0867 12.4576 24.1205C22.1885 11.6093 37.6845 4.12676 53.7722 3.55219C63.894 3.1907 79.733 1.67169 88.7774 6.03238C94.427 8.75627 96.3568 8.64304 103.4 14.9098C110.443 21.1766 116.109 33.4421 121.057 41.2755C124.084 46.0688 126.017 50.4637 127.201 56.0265C127.684 58.2986 128.776 60.3675 129.338 62.6155C129.867 64.7346 130.008 66.9927 130.822 69.0264C132.127 72.2887 132.21 76.3 133.612 79.4144Z" fill="#BEC5AD"/>
<path fill-rule="evenodd" clip-rule="evenodd" d="M71.7354 0.0220186C78.1589 0.14345 84.9379 0.850778 90.0802 3.33009C91.308 3.92207 92.3478 4.37207 93.3546 4.80774C93.4526 4.85016 93.5503 4.89244 93.6478 4.9347C94.7355 5.40604 95.8218 5.88344 96.9697 6.49125C99.3173 7.73427 101.759 9.43413 105.394 12.6686C109.276 16.1226 112.646 21.0918 115.582 25.9546C116.925 28.1788 118.212 30.442 119.431 32.5848C119.557 32.8074 119.683 33.0288 119.808 33.2486C121.149 35.6048 122.399 37.7821 123.593 39.6736C126.781 44.7214 128.867 49.4438 130.135 55.4022C130.325 56.2952 130.643 57.1899 131.05 58.2818C131.08 58.3619 131.111 58.4434 131.142 58.5261C131.509 59.5076 131.943 60.6685 132.248 61.8879C132.47 62.7758 132.639 63.7273 132.786 64.5495C132.833 64.8155 132.878 65.0679 132.922 65.3003C133.117 66.3405 133.313 67.1774 133.607 67.9122C134.337 69.7384 134.731 71.7215 135.061 73.3807C135.082 73.4847 135.102 73.5874 135.122 73.6888C135.491 75.5372 135.808 76.9854 136.347 78.1833L136.471 78.4578L136.537 78.7513C137.024 80.8992 137.404 83.2857 137.769 85.5831C137.845 86.0609 137.921 86.5348 137.996 87.0019C138.448 89.7925 138.913 92.3847 139.572 94.5799L139.62 94.7395L139.65 94.9035C139.796 95.7091 139.979 96.5484 140.169 97.4203C140.706 99.8907 141.301 102.623 141.301 105.592C141.301 115.683 136.73 124.104 129.593 130.527C125.421 134.283 118.315 137.195 113.447 138.523C107.462 140.155 101.282 141.32 95.2296 142.217C92.7101 142.59 90.3226 143.115 87.8225 143.665C86.4601 143.965 85.0642 144.272 83.5953 144.566C80.6946 145.146 77.7 145.215 74.8864 145.158C73.5892 145.133 72.4049 145.085 71.2652 145.039C69.7621 144.978 68.3364 144.921 66.8313 144.921C62.959 144.921 59.0936 145.18 55.1085 145.448L55.0676 145.451C51.1283 145.716 47.0712 145.989 42.9686 145.989C42.0405 145.989 41.1047 145.993 40.1623 145.996C33.4957 146.02 26.4992 146.046 19.6136 144.878C14.8698 144.074 11.9979 140.4 10.0861 137.106C9.10702 135.419 8.26152 133.62 7.51116 132.023L7.49961 131.998C6.71855 130.336 6.05605 128.93 5.37361 127.793C3.56849 124.785 2.80912 120.186 2.80912 117.078C2.80912 115.777 2.59115 114.445 2.31613 112.803L2.30542 112.739C2.0465 111.195 1.74064 109.37 1.74064 107.462C1.74064 103.358 1.29676 99.4253 0.832354 95.311C0.602434 93.2741 0.367482 91.1926 0.178873 89.0235C-0.198238 84.6868 0.0836442 80.4264 0.433352 76.3776C0.494636 75.6681 0.557725 74.9672 0.620182 74.2732C0.920601 70.9355 1.2064 67.7602 1.2064 64.5744C1.2064 64.1573 1.20609 63.7361 1.20579 63.3111C1.20125 57.0311 1.19612 49.9256 2.16272 43.0575C3.19687 35.7094 5.37613 28.3386 10.0894 22.2787C20.4032 9.01804 36.7526 1.15813 53.665 0.55412C54.9901 0.506796 56.4459 0.437325 57.9925 0.363522C62.1735 0.164005 67.0178 -0.0671642 71.7354 0.0220186ZM58.4771 6.34835C56.8772 6.42471 55.3366 6.49825 53.8792 6.5503C38.616 7.09541 23.9735 14.2006 14.8255 25.9623C11.0095 30.8686 9.06323 37.0792 8.10417 43.8937C7.19882 50.3266 7.20249 57.0352 7.20597 63.4006C7.20618 63.7932 7.2064 64.1845 7.2064 64.5744C7.2064 68.0556 6.89094 71.55 6.5892 74.8925C6.52837 75.5663 6.46811 76.2339 6.41109 76.894C6.06489 80.9022 5.82737 84.7209 6.15632 88.5038C6.31645 90.3453 6.53112 92.2563 6.75063 94.2104C7.23389 98.5124 7.74064 103.023 7.74064 107.462C7.74064 108.818 7.96051 110.182 8.23363 111.812L8.25537 111.941C8.51019 113.461 8.80912 115.243 8.80912 117.078C8.80912 119.615 9.48926 122.991 10.5186 124.706C11.369 126.124 12.1493 127.784 12.8786 129.337L12.9301 129.446C13.702 131.089 14.4437 132.661 15.2754 134.094C16.9952 137.057 18.6548 138.63 20.6162 138.963C26.9555 140.037 33.3975 140.017 40.1128 139.995C41.0592 139.992 42.0109 139.989 42.9686 139.989C46.8504 139.989 50.7208 139.73 54.7055 139.462L54.7596 139.458C58.6943 139.193 62.7425 138.921 66.8313 138.921C68.365 138.921 70.0838 138.987 71.747 139.052C72.8851 139.096 73.9971 139.14 75.006 139.16C77.6834 139.213 80.1619 139.133 82.4186 138.682C83.6483 138.436 84.9302 138.155 86.2426 137.867C88.8802 137.289 91.6412 136.683 94.3503 136.282C100.253 135.407 106.185 134.284 111.868 132.734C116.378 131.504 122.428 128.904 125.579 126.068C131.687 120.571 135.301 113.689 135.301 105.592C135.301 103.309 134.907 101.502 134.422 99.2788C134.216 98.3315 133.993 97.3089 133.777 96.1418C133.019 93.5683 132.515 90.6864 132.073 87.9607C131.991 87.4537 131.911 86.9528 131.833 86.4586C131.484 84.2714 131.157 82.2161 130.746 80.3487C129.97 78.5127 129.57 76.5244 129.238 74.863L129.217 74.7581C128.852 72.9245 128.555 71.4376 128.036 70.1406C127.517 68.8417 127.236 67.5327 127.024 66.4056C126.959 66.0548 126.901 65.7302 126.846 65.4231C126.711 64.6654 126.595 64.0148 126.427 63.3431L129.338 62.6155L126.427 63.3431C126.208 62.4661 125.888 61.6079 125.495 60.556L125.429 60.3782C125.029 59.3057 124.56 58.0299 124.266 56.6509C123.167 51.4836 121.387 47.4163 118.52 42.8775C117.241 40.8523 115.927 38.5589 114.594 36.2163C114.469 35.9966 114.344 35.7765 114.218 35.5559C112.994 33.4033 111.746 31.2088 110.446 29.0557C107.551 24.2608 104.567 19.9638 101.406 17.1511C97.9976 14.1188 95.9526 12.7418 94.1621 11.7938C93.241 11.3061 92.3454 10.9094 91.2622 10.44C91.1649 10.3979 91.0663 10.3552 90.9662 10.3119C89.9637 9.87819 88.8177 9.38237 87.4744 8.7347C83.5723 6.85332 77.9096 6.13981 71.622 6.02095C67.12 5.93584 62.6016 6.1515 58.4771 6.34835Z" fill="#A7B091"/>
<path fill-rule="evenodd" clip-rule="evenodd" d="M69.2214 84.6942C68.7978 85.6952 68.732 86.7271 68.9898 87.691C69.2817 88.782 69.9447 89.6331 70.6619 90.2111C71.362 90.7755 72.268 91.2037 73.2269 91.2774C73.3987 91.2906 73.5836 91.2915 73.7756 91.2765C74.7526 91.411 75.8515 91.2198 76.7762 90.5392C77.8809 89.7261 78.4453 88.4336 78.4453 86.9758C78.4453 83.96 76.146 82.1103 73.903 81.8695C72.7679 81.7477 71.4923 82.013 70.4738 82.8824C69.8974 83.3743 69.4807 83.9931 69.2214 84.6942Z" fill="#2C3F00"/>
<path fill-rule="evenodd" clip-rule="evenodd" d="M101.221 84.6942C100.798 85.6952 100.732 86.7271 100.99 87.691C101.282 88.782 101.945 89.6331 102.662 90.2111C103.362 90.7755 104.268 91.2037 105.227 91.2774C105.399 91.2906 105.584 91.2915 105.776 91.2765C106.753 91.411 107.851 91.2198 108.776 90.5392C109.881 89.7261 110.445 88.4336 110.445 86.9758C110.445 83.96 108.146 82.1103 105.903 81.8695C104.768 81.7477 103.492 82.013 102.474 82.8824C101.897 83.3743 101.481 83.9931 101.221 84.6942Z" fill="#2C3F00"/>
<path fill-rule="evenodd" clip-rule="evenodd" d="M102.999 101.502C104.379 101.502 105.499 102.621 105.499 104.002C105.499 106.776 103.424 108.545 101.375 109.541C99.2501 110.573 96.4214 111.181 93.2646 111.428C89.6397 111.712 86.1116 111.159 83.2585 110.14C81.8301 109.63 80.5189 108.985 79.4284 108.226C78.3642 107.486 77.3655 106.536 76.7689 105.359C76.1444 104.128 76.6364 102.623 77.8678 101.999C79.0992 101.374 80.6037 101.866 81.2282 103.098C81.3158 103.271 81.602 103.647 82.2844 104.122C82.9404 104.579 83.8372 105.038 84.9395 105.431C87.1476 106.219 89.9707 106.671 92.8744 106.443C95.7148 106.221 97.8507 105.694 99.1907 105.043C99.8546 104.721 100.209 104.423 100.376 104.224C100.453 104.131 100.481 104.072 100.489 104.05C100.497 104.031 100.499 104.02 100.499 104.002C100.499 102.621 101.618 101.502 102.999 101.502Z" fill="#2F3A13"/>
</svg>
