<svg width="144" height="147" viewBox="0 0 144 147" fill="none" xmlns="http://www.w3.org/2000/svg">
<path d="M39.9395 9.95649C43.7095 8.33149 48.137 6.53234 52.8688 5.20594C60.731 3.00208 68.4872 3.00208 76.6681 3.00208H76.6706C80.3284 3.00208 83.8443 3.37903 87.445 3.85913C92.5023 4.53344 98.7786 5.15507 103.362 7.31185C105.094 8.12695 107.585 8.56545 109.092 9.44225C110.92 10.506 113.075 11.3914 115.018 12.7788C119.144 15.7261 123.202 19.3508 126.576 22.6717C129 25.0578 131.366 29.0854 132.894 31.9217C135.531 36.8189 138.091 41.7524 139.162 47.2263C141.373 58.525 140.142 70.7448 140.142 82.2432C140.142 87.5065 139.103 93.6035 137.528 98.6447C135.704 104.481 133.113 109.94 130.255 115.37C127.232 119.904 124.21 123.934 120.683 126.957C117.155 129.636 115.141 131.995 112.275 133.814C110.607 134.514 107.695 136.231 105.982 136.752C103.347 137.554 100.736 138.389 98.097 139.201C94.305 140.368 91.3193 140.751 87.445 141.943C81.6839 143.716 74.9965 142.727 69.2019 142.727C65.654 142.727 61.8003 142.843 58.403 141.943C47.6328 140.559 39.9395 139.201 29.8507 132.491C26.2325 131.328 22.9806 128.778 20.0313 126.418C18.4778 125.176 17.1584 123.134 15.9419 121.57C14.6743 119.94 14.0704 118.018 12.8711 116.377C10.3522 111.339 10.3522 112.347 8.84078 108.317C6.76264 102.775 4.60424 94.2105 3.80316 88.165C3.43904 80.7649 2.7976 74.5791 3.06153 67.4528C3.21283 63.3678 3.50341 59.8088 4.60424 55.8458C5.33908 53.2004 6.28796 50.4975 6.93054 47.8629C7.38774 45.9884 8.14358 43.5247 8.98748 41.7901C12.8456 33.8595 17.4786 26.0653 24.6594 20.7309C27.3484 18.7334 29.6049 16.0735 32.6423 14.2173C35.0096 12.7706 37.3898 11.0555 39.9395 9.95649Z" fill="#E8A29C"/>
<path fill-rule="evenodd" clip-rule="evenodd" d="M76.4862 0.00207716L76.6704 0.00207907C80.5286 0.00207907 84.1999 0.399929 87.8414 0.885453C88.3659 0.955392 88.9153 1.02562 89.4844 1.09838C94.1254 1.6917 100.083 2.45332 104.639 4.5974C105.222 4.87182 105.955 5.10045 106.949 5.41018C107.032 5.43634 107.118 5.46308 107.206 5.49047C108.178 5.79418 109.506 6.21268 110.6 6.8491C111.189 7.19148 111.788 7.49886 112.477 7.85273C112.767 8.00162 113.073 8.15875 113.401 8.33017C114.446 8.87618 115.618 9.52085 116.761 10.3376C121.059 13.4073 125.24 17.1474 128.68 20.5337C131.464 23.2738 134.015 27.6772 135.535 30.4994C138.156 35.3665 140.937 40.6719 142.106 46.6502C143.808 55.3477 143.549 64.6933 143.306 73.4693C143.223 76.4772 143.142 79.4182 143.142 82.2432C143.142 87.8472 142.045 94.2465 140.391 99.5396C138.488 105.631 135.8 111.276 132.91 116.767L132.837 116.904L132.751 117.034C129.698 121.614 126.489 125.932 122.635 129.235L122.568 129.292L122.498 129.346C121.038 130.454 119.863 131.497 118.69 132.538C118.533 132.677 118.376 132.816 118.218 132.955C116.908 134.114 115.534 135.298 113.882 136.347L113.669 136.482L113.436 136.58C112.89 136.809 112.175 137.174 111.299 137.621C111.046 137.75 110.779 137.885 110.499 138.027C109.394 138.586 108.004 139.272 106.855 139.622C105.372 140.074 103.933 140.524 102.481 140.978C101.332 141.338 100.175 141.7 98.9791 142.068C96.9878 142.681 95.2107 143.088 93.5323 143.473L93.4721 143.487C91.7624 143.879 90.1464 144.251 88.3271 144.811C85.0097 145.831 81.5366 146.026 78.3112 146C76.7561 145.987 75.2067 145.921 73.7405 145.859L73.5595 145.851C72.019 145.786 70.5769 145.727 69.2018 145.727C68.8487 145.727 68.4848 145.729 68.1119 145.73C64.9956 145.743 61.2436 145.759 57.8333 144.895C47.127 143.515 38.9719 142.075 28.5242 135.211C24.4673 133.8 20.9415 130.989 18.1571 128.761C17.1077 127.922 16.2203 126.884 15.5004 125.967C15.1331 125.499 14.7826 125.027 14.4647 124.598L14.4055 124.518C14.1031 124.11 13.8344 123.747 13.5737 123.412C12.748 122.35 12.1668 121.229 11.7153 120.355L11.6998 120.325C11.2205 119.397 10.8801 118.738 10.4488 118.147L10.3003 117.944L10.1877 117.719C9.19162 115.727 8.62316 114.75 8.16238 113.958C8.062 113.785 7.96673 113.621 7.87326 113.458C7.27087 112.403 6.82845 111.495 6.03168 109.37C3.87412 103.617 1.66012 94.831 0.829039 88.5591L0.812759 88.4362L0.806669 88.3124C0.713307 86.415 0.598894 84.5694 0.4859 82.7467C0.16953 77.6433 -0.135705 72.7195 0.0634695 67.3418C0.217696 63.1777 0.518961 59.3435 1.71356 55.0429C2.06718 53.7699 2.41892 52.6339 2.75629 51.5444C3.21278 50.0702 3.64296 48.6809 4.01586 47.1521C4.49389 45.1921 5.30979 42.4918 6.28965 40.4777C10.1929 32.4542 15.0841 24.1067 22.8703 18.3227C23.8492 17.5955 24.7528 16.7794 25.7896 15.8429C26.0248 15.6305 26.2669 15.4119 26.5182 15.1867C27.8191 14.0212 29.3121 12.7365 31.0778 11.6574C31.5895 11.3447 32.1418 10.9909 32.7253 10.6172C34.5283 9.46223 36.6292 8.11646 38.7519 7.20152C42.5567 5.56152 47.1308 3.69871 52.059 2.31728C60.3193 0.0018146 68.4272 0.00194627 76.4862 0.00207716ZM76.668 6.00208C68.4251 6.00208 61.0804 6.01975 53.6784 8.0946C49.1429 9.36597 44.862 11.1015 41.1269 12.7115C39.491 13.4166 38.0086 14.3654 36.3321 15.4385C35.662 15.8674 34.9608 16.3162 34.2065 16.7771C32.9348 17.5543 31.7809 18.5276 30.5219 19.6555C30.3159 19.8401 30.1044 20.0314 29.8879 20.2272C28.843 21.1724 27.6809 22.2234 26.4482 23.1392C19.8728 28.0238 15.498 35.2648 11.6851 43.1025C10.9771 44.5577 10.2814 46.7846 9.84498 48.5738C9.45583 50.1693 8.90254 51.9736 8.38556 53.6595C8.05671 54.7319 7.74255 55.7564 7.49467 56.6487C6.48763 60.2741 6.20773 63.5579 6.05936 67.5639C5.87203 72.6218 6.15113 77.1271 6.46096 82.1284C6.57476 83.9653 6.6927 85.8691 6.7932 87.8917C7.57713 93.705 9.6647 101.97 11.6497 107.263C12.3643 109.169 12.6775 109.772 13.0827 110.481C13.165 110.625 13.253 110.776 13.3487 110.94C13.8014 111.718 14.4272 112.794 15.4485 114.825C16.0852 115.736 16.5723 116.681 16.9602 117.434C16.9894 117.491 17.0181 117.547 17.0462 117.601C17.5134 118.506 17.868 119.16 18.3098 119.728C18.6161 120.122 18.9256 120.54 19.2169 120.933L19.2863 121.027C19.6065 121.459 19.911 121.869 20.2199 122.262C20.8522 123.068 21.4011 123.673 21.9052 124.076C24.9265 126.493 27.7611 128.668 30.7686 129.635L31.1651 129.763L31.5119 129.993C41.0194 136.316 48.158 137.602 58.7852 138.968L58.9803 138.993L59.1705 139.043C61.8158 139.743 64.8246 139.736 68.1381 139.729C68.4893 139.728 68.8439 139.727 69.2018 139.727C70.724 139.727 72.2908 139.792 73.8139 139.857L73.9589 139.863C75.4524 139.926 76.9104 139.988 78.3606 140C81.3678 140.025 84.119 139.828 86.5626 139.076C88.6151 138.445 90.4272 138.029 92.1251 137.64L92.1314 137.638C93.8447 137.246 95.4378 136.88 97.2146 136.333C98.3356 135.989 99.4834 135.629 100.638 135.268C102.131 134.801 103.635 134.33 105.108 133.882C105.673 133.71 106.595 133.278 107.792 132.673C107.998 132.568 108.215 132.458 108.437 132.344C109.247 131.931 110.128 131.481 110.858 131.158C111.995 130.414 113.016 129.546 114.244 128.461C114.393 128.328 114.546 128.193 114.701 128.055C115.851 127.035 117.176 125.859 118.795 124.624C121.938 121.913 124.733 118.235 127.673 113.835C130.469 108.514 132.935 103.283 134.664 97.7499C136.161 92.9606 137.142 87.1659 137.142 82.2432C137.142 79.0413 137.229 75.8636 137.316 72.7167C137.551 64.1393 137.781 55.7904 136.218 47.8023C135.246 42.8329 132.905 38.2713 130.252 33.344C128.717 30.4936 126.536 26.8418 124.471 24.8097C121.164 21.5542 117.229 18.045 113.274 15.22C112.475 14.6493 111.598 14.1576 110.623 13.6481C110.386 13.5244 110.134 13.3952 109.874 13.2616C109.131 12.8802 108.318 12.4629 107.583 12.0354C107.17 11.795 106.499 11.5559 105.416 11.2174C105.319 11.187 105.218 11.1556 105.113 11.1232C104.217 10.8453 103.069 10.4897 102.084 10.0263C98.4497 8.31591 93.511 7.6743 88.6973 7.04891C88.1453 6.9772 87.595 6.9057 87.0484 6.83282C83.4883 6.35815 80.128 6.00208 76.6704 6.00208H76.668Z" fill="#D78079"/>
<path fill-rule="evenodd" clip-rule="evenodd" d="M51.2218 68.6942C50.7983 69.6952 50.7325 70.7271 50.9903 71.691C51.2822 72.782 51.9452 73.6331 52.6624 74.2111C53.3625 74.7755 54.2685 75.2037 55.2274 75.2774C55.3992 75.2906 55.5841 75.2915 55.7761 75.2765C56.7531 75.411 57.852 75.2198 58.7767 74.5392C59.8814 73.7261 60.4458 72.4336 60.4458 70.9758C60.4458 67.96 58.1465 66.1103 55.9035 65.8695C54.7684 65.7477 53.4928 66.013 52.4742 66.8824C51.8979 67.3743 51.4812 67.9931 51.2218 68.6942Z" fill="#5E0202"/>
<path fill-rule="evenodd" clip-rule="evenodd" d="M83.2218 68.6942C82.7983 69.6952 82.7325 70.7271 82.9903 71.691C83.2822 72.782 83.9452 73.6331 84.6624 74.2111C85.3625 74.7755 86.2685 75.2037 87.2274 75.2774C87.3992 75.2906 87.5841 75.2915 87.7761 75.2765C88.7531 75.411 89.852 75.2198 90.7767 74.5392C91.8814 73.7261 92.4458 72.4336 92.4458 70.9758C92.4458 67.96 90.1465 66.1103 87.9035 65.8695C86.7684 65.7477 85.4928 66.013 84.4742 66.8824C83.8979 67.3743 83.4812 67.9931 83.2218 68.6942Z" fill="#5E0202"/>
<path fill-rule="evenodd" clip-rule="evenodd" d="M87.1649 84.7659C88.3999 85.3834 88.9004 86.8851 88.2829 88.12C85.6671 93.3518 79.9706 94.9904 75.8841 96.158C72.3495 97.1678 68.4947 96.3106 65.6431 95.6765C65.5978 95.6664 65.5527 95.6563 65.5078 95.6464C61.3557 94.7237 59.183 92.416 57.0742 90.1762C56.7849 89.8689 56.4967 89.5628 56.2048 89.2618C55.2436 88.2706 55.2679 86.6878 56.2591 85.7267C57.2504 84.7655 58.8331 84.7898 59.7943 85.781C60.135 86.1325 60.45 86.4625 60.7456 86.7722C62.8798 89.0087 64.0082 90.1912 66.5925 90.7654C69.7383 91.4645 72.3578 91.9654 74.5105 91.3503C78.9929 90.0697 82.3272 88.8513 83.8108 85.884C84.4283 84.649 85.93 84.1485 87.1649 84.7659Z" fill="#5E0202"/>
</svg>
