<svg width="161" height="146" viewBox="0 0 161 146" fill="none" xmlns="http://www.w3.org/2000/svg">
<path d="M64.7793 9.87935C71.1545 16.9861 74.8805 25.8944 78.5335 34.6462C80.4465 30.819 82.1482 27.3718 85.0814 23.7868C90.3572 17.3386 96.2937 13.4215 103.217 8.97082C108.321 5.6895 118.67 3.89972 124.113 7.36343C129.404 10.7301 135.186 12.0536 137.601 18.5453C139.808 24.4769 137.967 31.8934 135.225 37.2749C133.619 40.4278 131.598 43.5991 129.39 46.3602C128.275 47.753 125.308 51.2934 123.449 51.7065C122.113 52.0034 112.71 54.8864 117.788 54.8864C126.469 54.8864 144.444 59.6558 150.147 66.4998C152.809 69.9219 160.793 81.3287 156.991 87.4123C155.09 95.0168 142.923 98.8191 137.601 98.8191C129.39 98.8191 117.999 97.3177 113.351 95.7351C112.066 95.2979 105.127 91.4035 107.131 93.953C108.783 96.0557 109.135 98.662 109.647 101.221C111.597 110.975 110.922 122.067 106.781 131.133C105.665 133.575 104.041 137.661 101.26 138.68C97.5769 140.031 93.6882 141.003 89.9385 142.175C83.0841 144.317 74.2896 142.023 68.4484 138.226C65.2823 136.168 63.7762 132.272 62.3682 128.966C59.937 123.258 56.9176 117.268 56.4977 110.97C56.2618 107.431 56.2588 103.639 56.952 100.173C57.0679 99.5935 57.3897 95.9503 56.323 97.657C54.2935 100.904 50.0712 104.604 47.0281 106.952C41.8104 110.977 35.535 115.198 29.1721 117.155C25.3672 118.326 21.2446 118.752 17.2564 119.322L17.1129 119.342C13.2671 119.892 13.1094 119.915 10.5123 117.155C4.02252 110.26 2.99951 104.598 2.99951 95.2808C2.99951 87.966 4.85006 79.6431 9.42908 73.7558C12.1226 70.2927 15.8066 68.2301 19.2482 65.6489C23.5894 62.3929 31.8512 63.8744 36.9994 63.0282C43.5441 61.9523 36.3194 60.6395 34.134 58.9398C32.2104 57.4436 29.8622 56.4422 28.1936 54.6068C26.7235 52.9897 25.6884 52.625 24.5246 50.6233C22.9025 47.8332 21.8223 45.0367 21.3797 41.8176C19.952 31.434 17.7612 21.4165 25.1536 12.7447C31.7062 5.05799 40.8233 1.316 50.6622 3.72932C55.8875 5.01099 61.059 5.73217 64.7793 9.87935Z" fill="white"/>
<path fill-rule="evenodd" clip-rule="evenodd" d="M22.8705 10.7985C30.0305 2.39928 40.256 -1.91209 51.3769 0.81568C51.9747 0.962327 52.5984 1.10448 53.2407 1.2509C57.7077 2.26911 63.0815 3.49405 67.0125 7.87608C72.28 13.7481 75.81 20.7394 78.8212 27.6353C79.9155 25.738 81.1697 23.8302 82.7595 21.8871C88.3695 15.0304 94.6829 10.8906 101.595 6.44728C104.623 4.50019 108.959 3.11796 113.214 2.65531C117.408 2.19927 122.167 2.56897 125.724 4.83243C126.927 5.59834 128.173 6.25749 129.514 6.96506L129.555 6.98695C130.846 7.66851 132.246 8.40756 133.568 9.2659C136.332 11.0596 138.914 13.4707 140.413 17.4991C143.05 24.5873 140.794 32.9518 137.898 38.6367C136.205 41.9604 134.076 45.3049 131.732 48.2343C131.15 48.9624 130.048 50.2966 128.818 51.5245C128.327 52.0143 127.783 52.5195 127.217 52.9743C130.085 53.5458 133.099 54.3257 136.013 55.2739C139.28 56.3373 142.506 57.6401 145.326 59.1553C148.11 60.6515 150.678 62.4503 152.452 64.5793L152.484 64.6181L152.515 64.658C153.91 66.4513 156.728 70.3665 158.72 74.7069C159.715 76.8755 160.567 79.2849 160.875 81.6752C161.166 83.9223 161.001 86.3798 159.781 88.5845C158.354 93.4642 153.947 96.7105 149.881 98.6699C145.601 100.733 140.785 101.819 137.601 101.819C133.337 101.819 128.305 101.431 123.757 100.846C119.262 100.268 115.006 99.4676 112.384 98.575C112.318 98.5528 112.248 98.5268 112.173 98.4977C112.272 98.9707 112.358 99.4232 112.437 99.8456C112.489 100.122 112.539 100.385 112.588 100.633C114.638 110.879 113.962 122.632 109.51 132.379C109.431 132.552 109.345 132.744 109.252 132.952C108.754 134.064 108.059 135.614 107.201 137.01C106.217 138.613 104.665 140.627 102.293 141.497C99.8273 142.401 97.165 143.174 94.6356 143.908C93.3165 144.291 92.0335 144.663 90.8333 145.038C82.8652 147.528 73.1401 144.854 66.8134 140.742C64.6853 139.358 63.2273 137.431 62.1501 135.563C61.2138 133.939 60.4721 132.184 59.8509 130.715C59.7679 130.518 59.687 130.327 59.6082 130.142C59.279 129.369 58.9288 128.572 58.569 127.752C56.4093 122.835 53.9014 117.125 53.5044 111.17C53.3843 109.368 53.3187 107.457 53.3758 105.52C51.7871 106.991 50.1801 108.309 48.8605 109.327C43.5872 113.395 36.9578 117.899 30.0543 120.023C26.64 121.073 22.9715 121.57 19.6358 122.022C18.9692 122.112 18.3159 122.201 17.6807 122.292L17.5375 122.312L17.4411 122.326C16.5621 122.452 15.7264 122.571 15.0068 122.615C14.2239 122.663 13.3472 122.641 12.4293 122.347C10.7729 121.816 9.56608 120.531 8.48856 119.383C8.43464 119.325 8.38104 119.268 8.32773 119.211C4.83436 115.5 2.68419 111.974 1.45675 108.014C0.251119 104.125 -0.000488281 100.008 -0.000488281 95.2808C-0.000488281 87.5742 1.93054 78.5102 7.06103 71.9139C8.63693 69.8877 10.4632 68.3234 12.2533 66.9752C13.1451 66.3035 14.0544 65.6665 14.9195 65.0604L14.9278 65.0547C15.8035 64.4412 16.6359 63.8581 17.4482 63.2489C20.4267 61.015 24.4368 60.5802 27.6899 60.4378C28.7612 60.3908 29.876 60.3748 30.9261 60.3616C30.7405 60.243 30.5473 60.1215 30.3442 59.9937C30.0653 59.8183 29.7676 59.631 29.4446 59.4232C28.3611 58.7259 27.0827 57.8445 25.9738 56.6248C25.5538 56.1628 25.2434 55.8882 24.8492 55.5394C24.6614 55.3733 24.4547 55.1903 24.2079 54.9623C23.4583 54.2693 22.698 53.4502 21.9311 52.1311C20.15 49.0676 18.9129 45.9009 18.4077 42.2262C18.2916 41.3818 18.1662 40.5247 18.0394 39.6572C16.6801 30.3605 15.145 19.8611 22.8705 10.7985ZM58.867 99.247C58.8977 99.1979 58.8971 99.2071 58.8632 99.2531C58.8645 99.251 58.8657 99.249 58.867 99.247ZM75.765 35.8017C75.6789 35.5956 75.593 35.3897 75.5071 35.1841C75.423 34.6 75.5099 33.9852 75.7938 33.4174L75.8501 33.3048M14.2683 116.63C14.2307 116.605 14.1608 116.555 14.0512 116.461C13.7537 116.206 13.3658 115.81 12.6969 115.099C9.70049 111.916 8.09424 109.162 7.18773 106.238C6.25941 103.243 5.99951 99.8704 5.99951 95.2808C5.99951 88.3578 7.76959 80.7758 11.7971 75.5976C12.9147 74.1606 14.2772 72.9622 15.8629 71.768C16.6589 71.1685 17.4843 70.5895 18.362 69.9746L18.4057 69.944C19.257 69.3476 20.1574 68.7169 21.0482 68.0489C22.4109 67.0268 24.7024 66.5743 27.9525 66.432C29.0066 66.3858 30.0362 66.3733 31.0972 66.3603C31.6291 66.3538 32.1689 66.3472 32.7237 66.3362C34.3045 66.3049 35.9709 66.2375 37.486 65.9884C38.3687 65.8433 39.1519 65.6743 39.7976 65.458C40.1218 65.3494 40.4877 65.2041 40.8437 65.0001C41.1769 64.8093 41.6812 64.4661 42.0845 63.8852C42.5473 63.2184 42.796 62.3436 42.627 61.4108C42.4783 60.59 42.0591 60.0215 41.7835 59.7126C41.2665 59.1332 40.6141 58.7645 40.2563 58.573C39.6419 58.2441 38.8111 57.895 38.1273 57.6076C37.9407 57.5292 37.7651 57.4553 37.6078 57.3878C36.6744 56.987 36.1704 56.723 35.9758 56.5717C35.1202 55.9062 34.1508 55.2973 33.3437 54.7904C33.1106 54.644 32.8911 54.5061 32.6917 54.3778C31.7031 53.7416 30.9732 53.2045 30.4135 52.5888C29.758 51.8677 29.0897 51.2762 28.6296 50.8688C28.493 50.7479 28.3747 50.6432 28.2806 50.5562C27.8542 50.1621 27.515 49.798 27.1181 49.1154C25.655 46.5988 24.7317 44.1726 24.3517 41.4089C24.245 40.6325 24.1369 39.8687 24.0305 39.1169C22.6468 29.3395 21.5509 21.5953 27.4366 14.6909C33.3819 7.71667 41.3905 4.54405 49.9475 6.64294C50.6653 6.81899 51.3554 6.98176 52.0195 7.13836C56.6245 8.22438 59.9729 9.01406 62.5462 11.8826C68.3855 18.392 71.9098 26.5739 75.5071 35.1841C75.5795 35.6864 75.7783 36.166 76.0872 36.5734C76.1709 36.7739 76.2547 36.9744 76.3385 37.1748C76.978 38.7033 78.7355 39.424 80.264 38.7845C81.7924 38.145 82.5131 36.3875 81.8736 34.8591C81.8597 34.8258 81.8458 34.7925 81.8319 34.7593C83.497 31.4465 85.0031 28.62 87.4033 25.6865C92.3448 19.6468 97.9046 15.9523 104.839 11.4943C106.915 10.1601 110.306 9.00679 113.862 8.62015C117.479 8.22689 120.616 8.69416 122.502 9.8944C123.923 10.7983 125.362 11.5579 126.654 12.2403L126.712 12.2709C128.057 12.9812 129.23 13.6033 130.302 14.299C132.356 15.6316 133.873 17.1282 134.79 19.5915C136.566 24.3665 135.139 30.8348 132.552 35.9131C131.033 38.8952 129.121 41.8932 127.047 44.4861C126.515 45.1508 125.576 46.2831 124.58 47.2769C124.08 47.7754 123.616 48.1888 123.222 48.4803C122.902 48.7168 122.745 48.7848 122.736 48.7922C121.82 49.0054 119.064 49.8317 117.093 50.6247C116.578 50.8322 116.046 51.065 115.584 51.3115C115.354 51.4342 115.09 51.5869 114.836 51.7694C114.624 51.9211 114.209 52.238 113.868 52.736C113.51 53.2578 112.914 54.5204 113.622 55.9502C114.188 57.0925 115.214 57.4835 115.525 57.5926C116.279 57.8572 117.147 57.8863 117.788 57.8863C121.718 57.8863 128.057 58.9943 134.156 60.9793C137.18 61.9637 140.059 63.1365 142.485 64.4404C144.924 65.751 146.73 67.1016 147.812 68.3839C149.089 70.0303 151.565 73.5016 153.266 77.209C154.125 79.0803 154.723 80.8771 154.925 82.4436C155.127 84.0102 154.905 85.0892 154.447 85.8223L154.196 86.2245L154.081 86.6847C153.462 89.1612 150.978 91.4808 147.276 93.2648C143.668 95.004 139.739 95.819 137.601 95.819C133.653 95.819 128.885 95.4562 124.523 94.8951C120.107 94.327 116.345 93.5853 114.318 92.8953C114.318 92.8953 114.317 92.8948 114.31 92.8921C114.28 92.8796 114.157 92.8287 113.896 92.7074C113.613 92.576 113.267 92.4089 112.861 92.2129L112.795 92.1811C112.022 91.8072 111.065 91.3442 110.196 90.9694C109.749 90.7766 109.279 90.5865 108.836 90.4376C108.469 90.3142 107.84 90.1189 107.18 90.0962C106.884 90.086 106.132 90.0859 105.356 90.5324C104.311 91.133 103.774 92.2074 103.77 93.2679C103.767 94.0683 104.061 94.6803 104.204 94.9501C104.378 95.2796 104.586 95.5704 104.772 95.8064C105.772 97.0796 106.074 98.6118 106.552 101.041C106.601 101.287 106.652 101.544 106.705 101.81C108.557 111.072 107.882 121.502 104.052 129.886C103.945 130.121 103.839 130.357 103.733 130.594C103.23 131.71 102.723 132.837 102.089 133.87C101.287 135.175 100.636 135.714 100.227 135.864C97.9322 136.705 95.655 137.364 93.275 138.053C91.9062 138.449 90.5034 138.855 89.0437 139.311C83.3029 141.105 75.439 139.192 70.0833 135.711C69.0454 135.036 68.1673 133.986 67.3479 132.565C66.6093 131.285 66.0188 129.891 65.381 128.386C65.2977 128.189 65.2136 127.991 65.1283 127.791C64.751 126.905 64.3705 126.033 63.9948 125.172C61.8237 120.196 59.8121 115.586 59.4911 110.771C59.2623 107.338 59.2761 103.849 59.8937 100.761C59.9992 100.234 60.1282 98.9304 60.0773 97.9082C60.0636 97.6353 60.0329 97.2729 59.9499 96.8993L59.9479 96.8905C59.8977 96.6638 59.7001 95.7728 58.939 95.0596C58.4495 94.6008 57.7153 94.2114 56.8057 94.2058C55.9711 94.2006 55.3435 94.522 54.9869 94.7619C54.3453 95.1934 53.9591 95.7789 53.779 96.067C52.0581 98.8205 48.2211 102.243 45.1957 104.577C40.0336 108.559 34.1122 112.496 28.2898 114.288C25.3904 115.18 22.3076 115.601 18.9795 116.054C18.2749 116.151 17.5593 116.248 16.8321 116.352L16.6884 116.373C15.6799 116.517 15.0884 116.599 14.6419 116.626C14.4354 116.639 14.3212 116.634 14.2683 116.63ZM14.2944 116.646C14.2872 116.643 14.2753 116.638 14.2594 116.633C14.249 116.629 14.2411 116.627 14.2362 116.626" fill="#E4CFEF"/>
<path fill-rule="evenodd" clip-rule="evenodd" d="M60.2218 59.6942C59.7983 60.6952 59.7325 61.7271 59.9903 62.691C60.2822 63.782 60.9452 64.6331 61.6624 65.2111C62.3625 65.7755 63.2685 66.2037 64.2274 66.2774C64.3992 66.2906 64.5841 66.2915 64.7761 66.2765C65.7531 66.411 66.852 66.2198 67.7767 65.5392C68.8814 64.7261 69.4458 63.4336 69.4458 61.9758C69.4458 58.96 67.1465 57.1103 64.9035 56.8695C63.7684 56.7477 62.4928 57.013 61.4742 57.8824C60.8979 58.3743 60.4812 58.9931 60.2218 59.6942Z" fill="#805D93"/>
<path fill-rule="evenodd" clip-rule="evenodd" d="M92.2218 59.6942C91.7983 60.6952 91.7325 61.7271 91.9903 62.691C92.2822 63.782 92.9452 64.6331 93.6624 65.2111C94.3625 65.7755 95.2685 66.2037 96.2274 66.2774C96.3992 66.2906 96.5841 66.2915 96.7761 66.2765C97.7531 66.411 98.852 66.2198 99.7767 65.5392C100.881 64.7261 101.446 63.4336 101.446 61.9758C101.446 58.96 99.1465 57.1103 96.9035 56.8695C95.7684 56.7477 94.4928 57.013 93.4742 57.8824C92.8979 58.3743 92.4812 58.9931 92.2218 59.6942Z" fill="#805D93"/>
<path fill-rule="evenodd" clip-rule="evenodd" d="M93.4149 75.5021C94.7956 75.5021 95.9149 76.6214 95.9149 78.0021C95.9149 81.6316 94.7138 84.8062 92.4983 87.232C90.3002 89.6388 87.2415 91.1606 83.7484 91.777C79.5599 92.5162 75.6192 91.0382 72.621 88.6256C69.6349 86.2228 67.3885 82.7501 66.5605 79.0703C66.2575 77.7233 67.1037 76.3856 68.4508 76.0825C69.7978 75.7794 71.1355 76.6257 71.4386 77.9728C72.0027 80.4798 73.5928 82.9899 75.7555 84.7302C77.9061 86.4607 80.4266 87.286 82.8795 86.8531C85.4875 86.3929 87.4793 85.3132 88.8063 83.8601C90.1161 82.426 90.9149 80.4824 90.9149 78.0021C90.9149 76.6214 92.0342 75.5021 93.4149 75.5021Z" fill="#805D93"/>
</svg>
