<svg width="484" height="48" viewBox="0 0 484 48" fill="none" xmlns="http://www.w3.org/2000/svg">
<path d="M4.87114 6C3.54968 12.7725 3 18.8395 3 25.6469C3 29.278 8.8348 33.0141 11.9399 29.909C16.2829 25.566 17.9691 15.7667 17.9691 9.74227" stroke="#353238" stroke-width="5" stroke-linecap="round"/>
<path d="M39.8757 10.7806C18.9698 4.92697 26.8048 34.1993 39.8757 25.4853" stroke="#353238" stroke-width="5" stroke-linecap="round"/>
<path d="M121.521 6C120.2 12.7725 119.65 18.8395 119.65 25.6469C119.65 29.278 125.485 33.0141 128.59 29.909C132.933 25.566 134.619 15.7667 134.619 9.74227" stroke="#353238" stroke-width="5" stroke-linecap="round"/>
<path d="M97.0762 13.9179C101.397 13.9179 104.519 12.7868 108.387 12.7868M101.601 6C102.464 14.0192 100.47 20.4275 100.47 28.0571C100.47 34.2489 107.663 30.8849 110.65 30.8849" stroke="#353238" stroke-width="5" stroke-linecap="round"/>
<path d="M221.685 13.9179C226.006 13.9179 229.127 12.7868 232.996 12.7868M226.209 6C227.073 14.0192 225.078 20.4275 225.078 28.0571C225.078 34.2489 232.272 30.8849 235.258 30.8849" stroke="#353238" stroke-width="5" stroke-linecap="round"/>
<path d="M168.619 19.6572C172.294 23.2211 176.031 27.0043 181.062 23.9303C184.064 22.0953 185.586 17.7481 185.586 14.5671C185.586 9.64946 184.804 9.75757 181.062 8.09448C178.741 7.06292 173.905 5.96356 173.081 8.84857C171.842 13.1832 168.471 20.3203 172.264 25.0614C175.03 28.5187 187.079 33.6376 190.111 27.5751" stroke="#353238" stroke-width="5" stroke-linecap="round"/>
<path d="M200.242 11.1235C199.712 15.9565 199.111 20.7197 199.111 25.5769C199.111 26.3468 199.111 30.3149 199.111 27.5249C199.111 22.8446 200.819 13.065 205.332 10.558C211.627 7.06099 212.684 20.9983 212.684 24.6971" stroke="#353238" stroke-width="5" stroke-linecap="round"/>
<path d="M158.921 22.991C158.173 21.8283 153.384 15.3401 150.982 17.128C149.719 18.068 148.092 19.1768 146.726 19.9757C143.842 21.6622 142.393 27.1839 144.925 29.7754C150.775 35.762 158.921 34.0259 158.921 25.2525M158.52 4V21.3087C158.52 25.5923 159.619 29.3115 159.619 33.672" stroke="#353238" stroke-width="5" stroke-linecap="round"/>
<path d="M88.0762 10.92C86.4974 7.71727 84.6781 3 80.5839 3C77.1954 3 74.1211 5.33264 72.6272 8.37779C70.7494 12.2056 72.6166 17.0645 75.7195 19.5856C78.2272 21.6231 81.4556 22.6537 84.2262 24.3401C86.0613 25.4571 87.2819 27.4217 87.8073 29.5712C88.4616 32.2478 85.467 34.2128 83.2239 34.9979C79.7031 36.2301 73.7761 35.9993 73.7761 31.1601" stroke="#353238" stroke-width="5" stroke-linecap="round"/>
<path d="M292.258 19.6572C295.934 23.2211 299.671 27.0043 304.701 23.9303C307.703 22.0953 309.225 17.7481 309.225 14.5671C309.225 9.64946 308.443 9.75757 304.701 8.09448C302.38 7.06292 297.544 5.96356 296.72 8.84857C295.482 13.1832 292.11 20.3203 295.903 25.0614C298.669 28.5187 310.719 33.6376 313.75 27.5751" stroke="#353238" stroke-width="5" stroke-linecap="round"/>
<path d="M412.258 19.6572C415.934 23.2211 419.671 27.0043 424.701 23.9303C427.703 22.0953 429.225 17.7481 429.225 14.5671C429.225 9.64946 428.443 9.75757 424.701 8.09448C422.38 7.06292 417.544 5.96356 416.72 8.84857C415.482 13.1832 412.11 20.3203 415.903 25.0614C418.669 28.5187 430.719 33.6376 433.75 27.5751" stroke="#353238" stroke-width="5" stroke-linecap="round"/>
<path d="M390.389 11.1235C389.86 15.9565 389.258 20.7197 389.258 25.5769C389.258 26.3468 389.258 30.3149 389.258 27.5249C389.258 22.8446 390.967 13.065 395.48 10.558C401.774 7.06099 402.832 20.9983 402.832 24.6971" stroke="#353238" stroke-width="5" stroke-linecap="round"/>
<path d="M349.557 6L348.508 11.2443M347.564 17C347.465 21.7236 346.499 27.4577 348.612 31.6842" stroke="#353238" stroke-width="5" stroke-linecap="round"/>
<path d="M442.258 10C443.265 15.1603 443.307 19.9759 443.307 25.2086C443.307 29.604 444.321 27.9337 445.404 24.6842C447.523 18.3277 448.022 11.0489 455.893 11.0489" stroke="#353238" stroke-width="5" stroke-linecap="round"/>
<path d="M282.56 22.991C281.812 21.8283 277.023 15.3401 274.621 17.128C273.358 18.068 271.731 19.1768 270.365 19.9757C267.481 21.6622 266.032 27.1839 268.564 29.7754C274.414 35.762 282.56 34.0259 282.56 25.2525M282.159 4V21.3087C282.159 25.5923 283.258 29.3115 283.258 33.672" stroke="#353238" stroke-width="5" stroke-linecap="round"/>
<path d="M338.459 10.92C336.88 7.71727 335.061 3 330.967 3C327.578 3 324.504 5.33264 323.01 8.37779C321.132 12.2056 322.999 17.0645 326.102 19.5856C328.61 21.6231 331.838 22.6537 334.609 24.3401C336.444 25.4571 337.665 27.4217 338.19 29.5712C338.844 32.2478 335.85 34.2128 333.607 34.9979C330.086 36.2301 324.159 35.9993 324.159 31.1601" stroke="#353238" stroke-width="5" stroke-linecap="round"/>
<path d="M481.459 10.92C479.88 7.71727 478.061 3 473.967 3C470.578 3 467.504 5.33264 466.01 8.37779C464.132 12.2056 465.999 17.0645 469.102 19.5856C471.61 21.6231 474.838 22.6537 477.609 24.3401C479.444 25.4571 480.665 27.4217 481.19 29.5712C481.844 32.2478 478.85 34.2128 476.607 34.9979C473.086 36.2301 467.159 35.9993 467.159 31.1601" stroke="#353238" stroke-width="5" stroke-linecap="round"/>
<path d="M378.163 9.23818C371.169 7.03611 367.586 7.1784 361.692 10.9783C359.209 12.5793 358.258 15.1427 358.258 18.3985C358.258 25.2636 365.011 28.1497 370.073 28.1497C371.405 28.1497 375.342 24.7878 375.515 23.4218C375.838 20.873 377.115 18.2439 377.115 15.6734C377.115 11.4489 377.115 3 377.115 3C377.115 3 378.687 13.627 378.687 18.9894C378.687 23.8985 380.258 28.4479 380.258 33.4686C380.258 38.2683 377.646 44.6973 372.663 44.6973C369.335 44.6973 363.496 46.6664 363.496 40.5604" stroke="#353238" stroke-width="5" stroke-linecap="round"/>
</svg>
