<svg width="157" height="147" viewBox="0 0 157 147" fill="none" xmlns="http://www.w3.org/2000/svg">
<path d="M10.723 88.6147C24.945 62.1604 43.3963 39.6772 58.7268 14.111C61.8457 8.90967 67.6604 3.72377 70.7429 3.27405C79.616 1.97956 86.4141 5.36996 94.229 12.079C112.804 28.0262 123.125 51.947 137.861 73.1675C150.748 91.7256 163.608 129.113 139.805 138.434C130.155 142.213 117.444 142.251 107.337 142.724C93.964 143.35 79.6388 142.724 67.1017 142.724C56.2503 142.724 33.8425 143.981 22.9093 138.434C16.1222 134.991 10.1241 128.01 6.29277 119.696C1.26243 108.779 5.30938 98.6844 10.723 88.6147Z" fill="#AFD2E9"/>
<path fill-rule="evenodd" clip-rule="evenodd" d="M70.31 0.305476C80.4299 -1.1709 88.0821 2.8478 96.1834 9.8028C105.812 18.0686 113.225 28.3351 120.018 39.0382C122.574 43.0647 125.017 47.11 127.455 51.1456C131.59 57.9898 135.708 64.8062 140.326 71.4563C146.974 81.03 153.631 95.4482 155.561 108.837C156.528 115.538 156.346 122.227 154.16 127.979C151.931 133.845 147.67 138.576 140.899 141.228C131.92 144.744 120.525 145.195 111.24 145.563C109.941 145.614 108.682 145.664 107.478 145.721C98.372 146.147 88.7514 145.998 79.6582 145.857C75.3145 145.789 71.0912 145.724 67.1019 145.724C65.6368 145.724 63.9187 145.748 62.0205 145.775C57.0997 145.845 50.9689 145.932 44.8999 145.656C36.5672 145.276 27.6477 144.202 21.5523 141.11C14.0025 137.28 7.59696 129.694 3.56835 120.951C-2.12137 108.604 2.64694 97.3016 8.08082 87.1941C15.2741 73.8139 23.5221 61.4656 31.8346 49.3341C33.0104 47.6181 34.1869 45.9072 35.362 44.1984C42.5188 33.7912 49.6209 23.4633 56.1541 12.5681C57.8889 9.67504 60.3256 6.85199 62.7435 4.67923C63.9576 3.58827 65.2162 2.61668 66.4342 1.86895C67.5997 1.15343 68.9496 0.503946 70.31 0.305476ZM92.275 14.3553C84.7466 7.89211 78.8026 5.13002 71.1762 6.24263C70.9953 6.26901 70.4625 6.4364 69.5733 6.98227C68.7366 7.49592 67.7686 8.23021 66.7539 9.1421C64.7141 10.975 62.684 13.3456 61.2999 15.6538C54.6627 26.7224 47.4429 37.2207 40.2911 47.62C39.1193 49.3238 37.9494 51.0249 36.7842 52.7255C28.4829 64.8407 20.3942 76.9612 13.3655 90.0352C7.97225 100.067 4.64666 108.955 9.01762 118.44C12.6516 126.326 18.2424 132.703 24.2668 135.759C29.1046 138.213 36.8556 139.283 45.1729 139.662C51.0502 139.93 56.8567 139.847 61.7311 139.778C63.6906 139.75 65.4995 139.724 67.1019 139.724C71.2858 139.724 75.6141 139.791 80.0117 139.86C88.9979 140 98.2734 140.145 107.197 139.727C108.469 139.668 109.765 139.615 111.077 139.561C120.501 139.176 130.755 138.757 138.712 135.641C143.842 133.632 146.9 130.195 148.551 125.848C150.246 121.389 150.507 115.823 149.623 109.693C147.852 97.4177 141.636 83.863 135.397 74.8786C130.694 68.1062 126.373 60.9577 122.153 53.9764C119.737 49.98 117.355 46.0383 114.952 42.2533C108.257 31.7041 101.222 22.0366 92.275 14.3553Z" fill="#8FBBD9"/>
<path fill-rule="evenodd" clip-rule="evenodd" d="M39.2218 84.6942C38.7983 85.6952 38.7325 86.7271 38.9903 87.691C39.2822 88.782 39.9452 89.6331 40.6624 90.2111C41.3625 90.7755 42.2685 91.2037 43.2274 91.2774C43.3992 91.2906 43.5841 91.2915 43.7761 91.2765C44.7531 91.411 45.852 91.2198 46.7767 90.5392C47.8814 89.7261 48.4458 88.4336 48.4458 86.9758C48.4458 83.96 46.1465 82.1103 43.9035 81.8695C42.7684 81.7477 41.4928 82.013 40.4742 82.8824C39.8979 83.3743 39.4812 83.9931 39.2218 84.6942Z" fill="#0D3450"/>
<path fill-rule="evenodd" clip-rule="evenodd" d="M71.2218 84.6942C70.7983 85.6952 70.7325 86.7271 70.9903 87.691C71.2822 88.782 71.9452 89.6331 72.6624 90.2111C73.3625 90.7755 74.2685 91.2037 75.2274 91.2774C75.3992 91.2906 75.5841 91.2915 75.7761 91.2765C76.7531 91.411 77.852 91.2198 78.7767 90.5392C79.8814 89.7261 80.4458 88.4336 80.4458 86.9758C80.4458 83.96 78.1465 82.1103 75.9035 81.8695C74.7684 81.7477 73.4928 82.013 72.4742 82.8824C71.8979 83.3743 71.4812 83.9931 71.2218 84.6942Z" fill="#0D3450"/>
<path fill-rule="evenodd" clip-rule="evenodd" d="M75.5147 100.673C76.8009 101.175 77.4367 102.625 76.9348 103.911C76.2537 105.656 76.4299 106.926 77.0448 107.609C77.6446 108.276 77.9709 108.436 79.0139 108.948C79.1994 109.039 79.4076 109.142 79.644 109.26C80.879 109.877 81.3795 111.379 80.7621 112.614C80.1446 113.849 78.6429 114.349 77.408 113.732C77.2394 113.648 77.0697 113.566 76.8987 113.483C76.2376 113.164 75.5571 112.835 74.846 112.325C71.923 115.853 67.3309 117.173 63.8841 118.158C60.3495 119.168 56.4947 118.311 53.6431 117.677C53.5978 117.666 53.5527 117.656 53.5078 117.646C49.3557 116.724 47.183 114.416 45.0742 112.176C44.7849 111.869 44.4967 111.563 44.2048 111.262C43.2436 110.271 43.2679 108.688 44.2591 107.727C45.2504 106.766 46.8331 106.79 47.7943 107.781C48.135 108.133 48.45 108.463 48.7456 108.772C50.8798 111.009 52.0082 112.191 54.5925 112.766C57.7383 113.465 60.3578 113.966 62.5105 113.35C66.9288 112.088 70.2316 110.886 71.746 108.01C71.206 105.915 71.6368 103.734 72.2769 102.093C72.7788 100.807 74.2284 100.171 75.5147 100.673Z" fill="#0D3450"/>
</svg>
